<?xml version="1.0" encoding="iso-8859-1"?>
<!-- Generator: Adobe Illustrator 19.0.0, SVG Export Plug-In . SVG Version: 6.00 Build 0)  -->
<svg version="1.1" id="Capa_1" xmlns="http://www.w3.org/2000/svg" xmlns:xlink="http://www.w3.org/1999/xlink" x="0px" y="0px"
	 viewBox="0 0 480.48 480.48" style="enable-background:new 0 0 480.48 480.48;" xml:space="preserve">
<path style="fill:#89B140;" d="M422.664,240.238l22.936-9.272c21.819-8.831,32.536-33.518,24.088-55.488L416,35.91
	c-8.592-22.258-33.601-33.336-55.859-24.744c-0.315,0.122-0.629,0.247-0.941,0.376l-268.248,111.2
	c-21.467,8.925-32.02,33.239-23.88,55.016l10.8,28.8L96,256.238h272L422.664,240.238z"/>
<path style="fill:#AAC16B;" d="M137.2,206.582l-16.96-42.4l67.84-33.92l16.96,42.4L137.2,206.582z"/>
<g>
	<g transform="matrix(1 -0.00017 0.00017 1 -0.004 0.009)">
		<path id="SVGCleanerId_0" style="fill:#79A73A;" d="M337.472,165.36l76.315-33.935l6.501,14.62l-76.315,33.935L337.472,165.36z"/>
	</g>
	<g>
		<path id="SVGCleanerId_1" style="fill:#79A73A;" d="M286.493,148.437l110.234-50.877l6.702,14.52l-110.234,50.877L286.493,148.437
			z"/>
	</g>
	<path style="fill:#79A73A;" d="M445.6,230.966c0.712-0.288,1.312-0.728,2-1.048c-2.143-21.374-20.119-37.656-41.6-37.68H72.464
		l5.376,14.344L96,256.238h272l54.664-16L445.6,230.966z"/>
</g>
<path style="fill:#FBB540;" d="M50,208.238h340c23.196,0,42,18.804,42,42v180c0,23.196-18.804,42-42,42H50
	c-23.196,0-42-18.804-42-42v-180C8,227.042,26.804,208.238,50,208.238z"/>
<g>
	<path style="fill:#6C7175;" d="M312,448.238c-26.51,0-48-21.49-48-48s21.49-48,48-48s48,21.49,48,48
		C359.974,426.736,338.499,448.211,312,448.238z M312,368.238c-17.673,0-32,14.327-32,32s14.327,32,32,32s32-14.327,32-32
		S329.673,368.238,312,368.238z"/>
	<path style="fill:#6C7175;" d="M360,448.238c-26.51,0-48-21.49-48-48s21.49-48,48-48s48,21.49,48,48
		C407.974,426.736,386.499,448.211,360,448.238z M360,368.238c-17.673,0-32,14.327-32,32s14.327,32,32,32s32-14.327,32-32
		S377.673,368.238,360,368.238z"/>
	<path style="fill:#6C7175;" d="M8,256.238h424v64H8V256.238z"/>
</g>
<path d="M50,480.238h340c27.601-0.031,49.969-22.399,50-50v-180c-0.016-2.714-0.257-5.422-0.72-8.096l9.288-3.76
	c25.771-10.564,38.437-39.734,28.56-65.776l-53.68-139.568C413.276,6.654,383.641-6.488,357.257,3.684
	c-0.383,0.148-0.765,0.3-1.145,0.457l-268.256,111.2c-25.543,10.478-38.097,39.391-28.312,65.208l7.376,19.688H50
	c-27.601,0.031-49.969,22.399-50,50v180C0.031,457.839,22.399,480.207,50,480.238z M390,464.238H50
	c-18.769-0.022-33.978-15.231-34-34v-102h408v102C423.978,449.006,408.769,464.216,390,464.238z M16,264.238h408v48H16V264.238z
	 M74.528,174.974c-6.715-17.738,1.91-37.598,19.456-44.8l268.248-111.2c17.933-7.436,38.499,1.073,45.936,19.006
	c0.116,0.279,0.228,0.56,0.336,0.842l53.68,139.568c6.791,17.895-1.908,37.943-19.616,45.208l-8.36,3.384
	c-8.635-16.424-25.652-26.718-44.208-26.744H167.776l40.84-20.424c3.724-1.859,5.401-6.263,3.856-10.128l-16.968-42.4
	c-1.64-4.102-6.296-6.098-10.398-4.458c-0.207,0.083-0.41,0.174-0.61,0.274l-67.832,33.936c-3.721,1.862-5.394,6.265-3.848,10.128
	l13.232,33.072H84L74.528,174.974z M130.408,168.046l53.472-26.744l10.992,27.496L141.4,195.534L130.408,168.046z M50,216.238h340
	c17.956,0.051,32.768,14.074,33.8,32H16.2C17.232,230.311,32.044,216.288,50,216.238L50,216.238z"/>
<path d="M360,352.238c-8.434,0.004-16.716,2.245-24,6.496c-22.922-13.317-52.3-5.531-65.617,17.391
	c-13.317,22.922-5.531,52.3,17.391,65.617c14.908,8.661,33.317,8.661,48.225,0c22.922,13.317,52.3,5.53,65.617-17.392
	c13.317-22.922,5.53-52.3-17.392-65.617C376.868,354.459,368.508,352.218,360,352.238z M336,421.182
	c-10.667-11.926-10.667-29.962,0-41.888C346.667,391.219,346.667,409.256,336,421.182z M280,400.238c0-17.673,14.327-32,32-32
	c3.627,0.038,7.221,0.698,10.624,1.952c-14.164,17.528-14.164,42.568,0,60.096c-3.403,1.254-6.997,1.914-10.624,1.952
	C294.327,432.238,280,417.911,280,400.238z M360,432.238c-3.627-0.038-7.221-0.698-10.624-1.952
	c14.164-17.528,14.164-42.568,0-60.096c3.403-1.254,6.997-1.914,10.624-1.952c17.673,0,32,14.327,32,32S377.673,432.238,360,432.238
	z"/>
<path id="SVGCleanerId_0_1_" d="M337.474,165.348l76.321-33.922l6.499,14.621l-76.321,33.922L337.474,165.348z"/>
<path id="SVGCleanerId_1_1_" d="M286.493,148.437l110.234-50.877l6.702,14.52l-110.234,50.877L286.493,148.437z"/>
<g>
</g>
<g>
</g>
<g>
</g>
<g>
</g>
<g>
</g>
<g>
</g>
<g>
</g>
<g>
</g>
<g>
</g>
<g>
</g>
<g>
</g>
<g>
</g>
<g>
</g>
<g>
</g>
<g>
</g>
</svg>
