<?xml version="1.0" encoding="UTF-8" standalone="no" ?>
<!DOCTYPE svg PUBLIC "-//W3C//DTD SVG 1.1//EN" "http://www.w3.org/Graphics/SVG/1.1/DTD/svg11.dtd">
<svg xmlns="http://www.w3.org/2000/svg" xmlns:xlink="http://www.w3.org/1999/xlink" version="1.1" width="400" height="400" viewBox="0 0 400 400" xml:space="preserve">
<desc>Created with Fabric.js 3.6.2</desc>
<defs>
</defs>
<g transform="matrix(0.39 0 0 0.39 200 200)" id="Layer_1"  >
<path style="stroke: none; stroke-width: 1; stroke-dasharray: none; stroke-linecap: butt; stroke-dashoffset: 0; stroke-linejoin: miter; stroke-miterlimit: 4; fill: rgb(94,190,225); fill-rule: nonzero; opacity: 1;"  transform=" translate(-256, -256)" d="M 512 397.1 c 0 63.5 -51.5 114.9 -114.9 114.9 H 114.9 C 51.5 512 0 460.5 0 397.1 V 114.9 C 0 51.5 51.5 0 114.9 0 h 282.2 C 460.5 0 512 51.5 512 114.9 V 397.1 z" stroke-linecap="round" />
</g>
<g transform="matrix(0.39 0 0 0.39 199.99 199.99)" id="Layer_1"  >
<path style="stroke: none; stroke-width: 1; stroke-dasharray: none; stroke-linecap: butt; stroke-dashoffset: 0; stroke-linejoin: miter; stroke-miterlimit: 4; fill: rgb(255,255,255); fill-rule: nonzero; opacity: 1;"  transform=" translate(-255.97, -255.97)" d="M 383.1 134.1 L 116.3 238 c -8.6 3.4 -8.1 15.8 0.8 18.4 l 67.8 20 l 25.3 80.3 c 2.6 8.4 13.3 10.9 19.4 4.6 l 35.1 -35.8 l 68.8 50.5 c 8.4 6.2 20.4 1.6 22.5 -8.6 l 45.5 -217.8 C 403.8 139 393.3 130.1 383.1 134.1 L 383.1 134.1 L 383.1 134.1 z M 349.7 182.4 L 225.8 292 c -1.2 1.1 -2 2.6 -2.2 4.2 l -4.8 42.4 c -0.2 1.4 -2.1 1.6 -2.5 0.2 l -19.6 -63.3 c -0.9 -2.9 0.3 -6 2.9 -7.6 l 146.3 -90.8 C 349.2 175.2 352.7 179.8 349.7 182.4 L 349.7 182.4 L 349.7 182.4 z" stroke-linecap="round" />
</g>
</svg>